<svg viewBox="0 0 96 96" xmlns="http://www.w3.org/2000/svg" xmlns:xlink="http://www.w3.org/1999/xlink" id="Icons_History1" overflow="hidden"><path d="M48 10C36.4374 9.98835 25.5014 15.2538 18.3 24.3L16.687 22.687 10 16 10 37 31 37 25.2 31.2 22.612 28.612C33.3568 14.6304 53.4014 12.0064 67.383 22.7512 81.3646 33.4959 83.9886 53.5406 73.2439 67.5222 62.4991 81.5038 42.4544 84.1278 28.4728 73.383 20.5902 67.3253 15.9791 57.9414 16 48L10 48C10 68.9868 27.0132 86 48 86 68.9868 86 86 68.9868 86 48 86 27.0132 68.9868 10 48 10Z"/><path d="M45 27 45 49.243 59.879 64.121 64.121 59.879 51 46.757 51 27 45 27Z"/></svg>