<svg width="136" height="136" xmlns="http://www.w3.org/2000/svg" xmlns:xlink="http://www.w3.org/1999/xlink" overflow="hidden"><defs><clipPath id="clip0"><rect x="430" y="133" width="136" height="136"/></clipPath><linearGradient x1="430.502" y1="268.498" x2="564.498" y2="133.502" gradientUnits="userSpaceOnUse" spreadMethod="reflect" id="fill1"><stop offset="0" stop-color="#021B79"/><stop offset="0.5" stop-color="#0448B0"/><stop offset="1" stop-color="#0575E6"/></linearGradient></defs><g clip-path="url(#clip0)" transform="translate(-430 -133)"><path d="M486.755 213.74 486.755 240.559 511.412 225.395 511.412 213.74ZM512.33 167.135 505.848 178.089 490.855 174.113 490.586 173.932 490.097 173.833 490.112 173.774 480.463 171.346 480.457 171.372 480.046 171.289 479.857 171.327 479.846 171.299 479.67 171.364 479.12 171.476 478.82 171.678 463.539 177.308 463.205 177.376 463.023 177.498 462.877 177.552 462.89 177.588 462.45 177.885C462.02 178.315 461.754 178.909 461.754 179.565 461.754 179.893 461.82 180.206 461.94 180.49L462.04 180.638 462.011 180.645 465.338 193.519 469.016 192.569 466.013 180.947 466.268 180.568 479.502 175.934 480.046 176.044 480.117 176.029 482.106 176.556 472.877 197.777 472.031 199.274 456.387 215.269 456.144 215.318C455.717 215.498 455.354 215.799 455.098 216.179L455.041 216.366 442.064 224.316 441.03 224.934 441.037 224.946 440.984 224.979 442.216 226.988 442.246 226.97 442.98 228.198 456.949 219.859 457.069 219.883C457.561 219.883 458.019 219.734 458.398 219.477L458.522 219.327 462.651 215.007 473.311 204.295 477.204 203.146 495.882 201.162 491.685 210.926 495.18 212.426 498.139 205.542 498.155 205.549 500.682 199.711 500.733 199.635 500.749 199.556 500.779 199.488 500.764 199.482 500.917 198.727C500.917 197.76 500.329 196.931 499.491 196.577L498.695 196.416 498.695 196.413 498.686 196.414 498.582 196.393 498.204 196.47 476.861 198.921 476.866 198.967 476.843 198.896 486.1 177.613 488.727 178.309 488.734 178.313 488.78 178.323 489.023 178.387 489.027 178.372 489.66 178.5 489.936 178.444 506.155 182.738 506.173 182.671 506.556 182.748C507.845 182.748 508.89 181.703 508.89 180.414L508.889 180.409 515.6 169.069ZM490.258 149.122C484.942 149.122 480.633 153.429 480.633 158.743 480.633 164.056 484.942 168.363 490.258 168.363 495.573 168.363 499.883 164.056 499.883 158.743 499.883 153.429 495.573 149.122 490.258 149.122ZM497.5 134C534.779 134 565 164.206 565 201.467 565 215.44 560.75 228.421 553.472 239.189L550.66 242.948 550.66 177.704 526.003 177.704 526.003 214.689 533.117 207.101 530.238 204.404 547.361 197.676 541.755 215.191 538.875 212.494 526.003 226.224 526.003 262.56 523.774 263.633C521.755 264.486 519.686 265.244 517.572 265.901L511.412 267.485 511.412 234.656 486.755 249.82 486.755 268 483.896 267.564C479.502 266.665 475.264 265.34 471.226 263.633L470.831 263.443 470.831 252.062 455.108 253.935 454.564 253.528C452.897 252.153 451.297 250.7 449.77 249.174L447.681 246.876 470.831 244.118 470.831 237.438 446.174 237.438 446.174 245.219 445.414 244.383C435.784 232.72 430 217.769 430 201.467 430 164.206 460.221 134 497.5 134Z" fill="url(#fill1)" fill-rule="evenodd"/></g></svg>