<?xml version="1.0" standalone="no"?>
<!DOCTYPE svg PUBLIC "-//W3C//DTD SVG 20010904//EN"
 "http://www.w3.org/TR/2001/REC-SVG-20010904/DTD/svg10.dtd">
<svg version="1.0" xmlns="http://www.w3.org/2000/svg"
 width="1024.000000pt" height="1024.000000pt" viewBox="0 0 1024.000000 1024.000000"
 preserveAspectRatio="xMidYMid meet">

<g transform="translate(0.000000,1024.000000) scale(0.100000,-0.100000)"
fill="#000000" stroke="none">
<path d="M4750 8849 c-328 -31 -703 -120 -1005 -239 -282 -112 -633 -307 -850
-474 -291 -224 -607 -559 -812 -861 -277 -409 -505 -973 -588 -1452 -65 -379
-73 -885 -19 -1253 47 -322 160 -717 285 -1003 204 -464 448 -826 789 -1168
283 -283 579 -494 935 -665 389 -187 758 -292 1210 -346 143 -17 657 -17 830
0 171 17 401 56 550 93 138 34 417 125 496 162 30 14 75 34 102 45 43 19 55
37 34 53 -5 3 -2 9 6 12 11 4 15 0 12 -14 -5 -27 6 -24 91 22 132 70 137 74
119 89 -19 16 -9 33 16 27 10 -3 24 2 31 11 11 13 10 15 -4 9 -10 -3 -18 -2
-18 3 0 5 -8 11 -17 13 -12 3 -9 5 8 6 39 2 45 31 41 184 l-4 137 -29 0 -29 0
0 179 c0 233 7 298 31 304 17 5 19 16 19 119 0 63 3 169 6 235 6 110 5 120
-11 127 -11 4 -22 1 -27 -6 -6 -10 -10 -10 -17 2 -10 15 6 33 21 24 4 -3 5 2
2 10 -4 11 0 13 15 9 12 -3 21 -1 21 5 0 14 48 21 53 8 2 -6 7 -8 11 -5 4 4 1
13 -7 20 -7 8 -18 22 -23 31 -8 14 -18 8 -74 -43 -234 -216 -540 -407 -832
-518 -284 -108 -493 -148 -828 -158 -434 -13 -768 59 -1140 243 -370 184 -640
408 -887 736 -242 319 -418 719 -483 1098 -47 265 -46 651 0 926 99 586 431
1147 925 1559 196 164 498 332 754 419 182 63 436 110 631 119 l55 2 3 588 2
587 -157 -1 c-87 -1 -196 -5 -243 -10z m2130 -5708 c5 -11 10 -39 10 -63 l-1
-43 -20 38 c-11 20 -27 37 -37 38 -12 0 -11 3 6 10 13 5 28 7 33 4 5 -4 6 1 3
10 -5 12 -10 13 -17 6 -17 -17 -31 -13 -17 4 17 20 27 19 40 -4z m78 -43 c-1
-54 -2 -56 -5 -18 -3 24 -9 50 -14 56 -5 6 -6 14 -2 17 17 18 23 2 21 -55z
m-158 -13 c0 -9 -6 -12 -15 -9 -8 4 -12 10 -9 15 8 14 24 10 24 -6z m-47 -29
c4 -10 1 -13 -7 -10 -7 3 -19 -2 -26 -11 -7 -8 -17 -15 -23 -15 -5 0 3 11 19
25 34 29 31 28 37 11z m-85 -75 c11 -6 10 -9 -5 -13 -23 -6 -45 1 -37 13 7 11
25 11 42 0z m-133 -71 c-3 -5 -12 -10 -18 -10 -7 0 -6 4 3 10 19 12 23 12 15
0z m374 -1083 c-13 -5 -40 -10 -59 -12 -19 -1 -27 0 -17 2 9 3 15 8 13 12 -3
4 16 8 41 8 40 0 43 -2 22 -10z"/>
<path d="M5140 7023 c-401 -60 -611 -136 -880 -316 -430 -288 -730 -769 -804
-1287 -58 -415 -5 -812 154 -1148 188 -395 573 -764 967 -926 91 -38 254 -83
363 -101 126 -21 353 -30 523 -20 l137 7 0 339 0 339 648 0 649 0 6 548 c4
301 7 751 7 1000 l0 452 -960 0 -960 0 0 265 0 265 868 2 c477 0 906 0 953 -2
49 -1 89 2 93 8 13 21 -269 210 -466 312 -278 144 -545 228 -823 260 -84 9
-419 12 -475 3z m106 -1543 l1034 0 0 -265 0 -265 -775 0 -775 0 -2 -397 -3
-398 -275 0 -275 0 -3 655 c-1 360 0 661 3 669 3 7 12 10 21 7 9 -3 481 -6
1050 -6z"/>
<path d="M7070 3230 c0 -5 5 -10 11 -10 5 0 7 5 4 10 -3 6 -8 10 -11 10 -2 0
-4 -4 -4 -10z"/>
<path d="M7230 2030 c-8 -5 -12 -11 -10 -14 3 -2 14 2 24 10 22 15 10 19 -14
4z"/>
<path d="M7130 1960 c-8 -5 -12 -12 -9 -15 4 -3 12 1 19 10 14 17 11 19 -10 5z"/>
<path d="M7066 1919 c-21 -16 -36 -29 -33 -29 13 0 77 43 77 51 0 12 1 12 -44
-22z"/>
<path d="M6988 1873 c-16 -8 -28 -19 -28 -24 0 -6 14 -2 30 8 17 9 30 21 30
25 0 4 -1 8 -2 7 -2 -1 -15 -8 -30 -16z"/>
</g>
</svg>
